<?xml version="1.0" standalone="no"?>
<!DOCTYPE svg PUBLIC "-//W3C//DTD SVG 1.1//EN" "http://www.w3.org/Graphics/SVG/1.1/DTD/svg11.dtd" >
<svg xmlns="http://www.w3.org/2000/svg" xmlns:xlink="http://www.w3.org/1999/xlink" version="1.1">
<metadata>
Created by FontForge 20161003 at Sat Nov 24 20:59:48 2018
 By www-data
Nawras Khrais 
</metadata>
<defs>
<font id="ONEDAY" horiz-adv-x="1705" >
  <font-face 
    font-family="ONE DAY"
    font-weight="400"
    font-stretch="normal"
    units-per-em="2048"
    panose-1="0 0 0 0 0 0 0 0 0 0"
    ascent="1536"
    descent="-512"
    x-height="1534"
    cap-height="1536"
    bbox="-74 -203 1608 1739"
    underline-thickness="102"
    underline-position="-715"
    unicode-range="U+000D-25FC"
  />
<missing-glyph horiz-adv-x="748" 
d="M68 0v1365h544v-1365h-544zM136 68h408v1229h-408v-1229z" />
    <glyph glyph-name=".notdef" horiz-adv-x="748" 
d="M68 0v1365h544v-1365h-544zM136 68h408v1229h-408v-1229z" />
    <glyph glyph-name="glyph1" horiz-adv-x="0" 
 />
    <glyph glyph-name="uni000D" unicode="&#xd;" horiz-adv-x="704" 
 />
    <glyph glyph-name="glyph3" horiz-adv-x="0" 
 />
    <glyph glyph-name="glyph3" horiz-adv-x="0" 
 />
    <glyph glyph-name="space" unicode=" " horiz-adv-x="405" 
 />
    <glyph glyph-name="exclam" unicode="!" horiz-adv-x="239" 
d="M41 59q0 25 16.5 41.5t42.5 16.5q23 0 40.5 -16.5t17.5 -41.5q0 -27 -17.5 -43t-40.5 -16q-27 0 -43 16.5t-16 42.5zM45 276v1201q0 27 16.5 43t40.5 16q23 0 41.5 -16.5t18.5 -42.5v-1201q0 -25 -18.5 -42t-41.5 -17q-25 0 -41 17.5t-16 41.5z" />
    <glyph glyph-name="quotedbl" unicode="&#x22;" horiz-adv-x="452" 
d="M0 1257l43 242q2 18 19.5 30.5t37.5 8.5q18 -4 30.5 -20.5t10.5 -36.5l-43 -242q-4 -16 -17.5 -28.5t-29.5 -12.5q-8 0 -12 2q-18 2 -30.5 18.5t-8.5 38.5zM156 1257l39 242q6 18 22 30.5t35 8.5q23 -4 34 -20.5t7 -36.5l-41 -242q-4 -16 -17.5 -28.5t-31.5 -12.5h-4
q-4 0 -4 2q-20 2 -31.5 18.5t-7.5 38.5z" />
    <glyph glyph-name="numbersign" unicode="#" horiz-adv-x="1245" 
d="M0 553q0 20 16.5 38.5t38.5 18.5h183l57 256h-240q-23 0 -39 16.5t-16 41.5q0 23 16.5 40t38.5 17h267l40 221q8 20 27 33.5t39 9.5q29 -8 41 -26.5t10 -42.5l-47 -195h254l49 221q4 20 24.5 33.5t41.5 9.5q23 -8 36 -26.5t9 -42.5l-41 -195h162q20 0 37.5 -17.5
t17.5 -39.5q0 -25 -17.5 -41.5t-37.5 -16.5h-189l-51 -256h240q20 0 37.5 -18.5t17.5 -38.5q0 -29 -17.5 -43t-37.5 -14h-267l-45 -228q-4 -20 -19 -32.5t-32 -12.5q-4 0 -7 2t-7 2q-25 4 -37 21.5t-10 46.5l47 201h-258l-49 -228q-4 -20 -19.5 -32.5t-34.5 -12.5q-4 0 -6 2
q-2 0 -2 2q-29 4 -42 21.5t-9 46.5l51 201h-166q-23 0 -39 14t-16 43zM358 610h252l60 256h-258z" />
    <glyph glyph-name="dollar" unicode="$" horiz-adv-x="1089" 
d="M0 395v4q0 23 16.5 39.5t38.5 16.5q27 0 45.5 -16.5t18.5 -39.5q0 -4 4 -49t33 -98q47 -68 115.5 -102.5t172.5 -34.5q29 0 45.5 -17.5t16.5 -42.5q0 -10 -4 -16v-184q0 -23 -15.5 -40.5t-42.5 -17.5q-25 0 -40 17.5t-15 40.5v145q-72 6 -126 25.5t-94 47t-67.5 59.5
t-46.5 63q-20 37 -31.5 72.5t-16.5 63t-6 45t-1 19.5zM0 1128q0 18 3 63.5t26 102.5q10 33 27.5 61.5t39.5 55.5q29 29 60.5 52.5t72.5 39.5q23 10 45.5 2t30.5 -30q8 -25 0 -48.5t-33 -31.5q-49 -20 -78.5 -51t-46 -68t-22.5 -76t-6 -72q0 -51 13 -104t49 -96t99.5 -71
t163.5 -28q156 0 256 -59q43 -23 77 -58.5t61 -76.5q20 -37 31.5 -74t16.5 -69.5t6 -58t1 -38.5q0 -23 -4 -71t-29 -107q-25 -63 -80 -115q-29 -29 -66.5 -48t-82.5 -34q-2 -4 -6 -4h-7q-20 0 -36.5 12.5t-24.5 30.5q-4 25 7 47.5t36 30.5q178 51 178 258q0 315 -334 316
q-72 0 -135 13t-114 44q-45 23 -79 55.5t-61 73.5q-16 33 -29.5 67.5t-19.5 75.5q-4 29 -5 53.5t-1 34.5zM119 395v4v-4zM389 1485v198q0 23 15.5 39.5t39.5 16.5q27 0 42.5 -16.5t15.5 -39.5v-145q70 -4 125 -24.5t96 -49t68.5 -62.5t46.5 -67q20 -39 31.5 -75.5
t16.5 -65.5t6 -48l1 -18v-4q0 -25 -16.5 -40t-38.5 -15q-27 0 -43.5 15.5t-16.5 39.5v4q-2 25 -8 50q-4 23 -13 49t-26 55q-82 143 -287 143h-6h-4l-4 2q-41 14 -41 58z" />
    <glyph glyph-name="percent" unicode="%" horiz-adv-x="1015" 
d="M-2 42q-6 24 6 46l778 1417q10 23 34 29t46 -6q23 -12 28 -35t-5 -45l-779 -1417q-16 -31 -51 -31q-16 0 -28 6q-23 12 -29 36zM109 1395q0 59 39.5 100t99.5 41q59 0 100 -41t41 -100t-41 -100.5t-100 -41.5t-99 41t-40 101zM197 1395q0 -23 14 -38.5t37 -15.5t38 15.5
t15 38.5t-15 37t-38 14t-37 -14.5t-14 -36.5zM494 141q0 59 40.5 100.5t100.5 41.5q59 0 100 -41t41 -101q0 -59 -41 -100t-100 -41t-100 41t-41 100zM582 141q0 -23 15 -38t38 -15t38 15.5t15 37.5q0 23 -15 38.5t-38 15.5t-38 -15.5t-15 -38.5z" />
    <glyph glyph-name="ampersand" unicode="&#x26;" horiz-adv-x="1044" 
d="M-10 334v497q0 23 17.5 40.5t41.5 17.5q25 0 42.5 -17.5t17.5 -40.5v-497q0 -2 4 -40t30 -85q61 -113 226 -113q166 0 231 117q10 23 16.5 45.5t10.5 38.5q4 20 4 37v133h-103q-23 0 -41 17.5t-18 41.5q0 27 18.5 43.5t40.5 16.5h322q25 0 42 -16.5t17 -43.5
q0 -25 -17.5 -42t-41.5 -17h-102v-133q0 -6 -5.5 -59.5t-37.5 -118.5q-23 -39 -52.5 -71t-66.5 -54q-90 -55 -217 -56q-63 0 -117.5 14.5t-99.5 41.5q-70 43 -115 125q-35 66 -41 119t-6 59zM-10 1016v192q0 8 6 60.5t41 117.5q16 31 42.5 62t66.5 56.5t94.5 42t126.5 16.5
t126 -13.5t94 -35t67.5 -48t43.5 -51.5q37 -57 43.5 -104t6.5 -54v-2q0 -25 -16.5 -41t-41.5 -16t-42 16.5t-17 40.5v-2q0 2 -5 33t-28 64q-68 92 -231 92q-162 0 -224 -113q-27 -45 -30.5 -82t-3.5 -39v-135h337q27 0 44.5 -16.5t17.5 -40.5q0 -27 -17.5 -44.5t-44.5 -17.5
h-397q-25 0 -42 17.5t-17 44.5z" />
    <glyph glyph-name="quotesingle" unicode="'" horiz-adv-x="245" 
d="M6 1257l39 242q6 18 22.5 30.5t34.5 8.5q23 -4 34 -20.5t7 -36.5l-41 -242q-4 -16 -17.5 -28.5t-31.5 -12.5h-4q-4 0 -4 2q-20 2 -31.5 18.5t-7.5 38.5z" />
    <glyph glyph-name="parenleft" unicode="(" horiz-adv-x="632" 
d="M0 766q0 111 16.5 206t46.5 181q51 131 146 236q39 39 76 66.5t66.5 44t50 24.5t26.5 10q4 0 8 1t8 1q25 0 42.5 -17.5t17.5 -41.5q0 -20 -12.5 -36t-30.5 -20q-2 0 -17.5 -6t-39 -20.5t-53 -37t-60.5 -57.5q-174 -186 -174 -534q0 -342 174 -533q31 -35 60.5 -57
t54.5 -37q28 -16 55 -24q18 -4 30.5 -19.5t12.5 -38.5t-17.5 -40t-42.5 -17q-4 0 -8 1t-8 1q-6 2 -26.5 9t-51.5 24.5t-67.5 44t-73.5 67.5q-92 98 -146 236q-31 84 -47 179t-16 204z" />
    <glyph glyph-name="parenright" unicode=")" horiz-adv-x="655" 
d="M0 57q0 20 12.5 36t30.5 22q2 0 17.5 6t40 20.5t54 37t60.5 54.5q174 190 174 535q0 346 -174 532q-31 35 -62.5 58.5t-56 37t-40.5 19.5l-15 6h2q-18 6 -30.5 21.5t-12.5 34.5q0 25 17.5 42t41.5 17q4 0 8.5 -1t8.5 -1q6 -2 26.5 -10t51 -25.5t67.5 -45.5t74 -67
q94 -100 145 -233q66 -172 66 -385q0 -217 -66 -383q-53 -139 -145 -235q-37 -41 -74 -69t-67.5 -44.5t-51 -24.5t-26.5 -10t-17 -2q-25 0 -42 16.5t-17 40.5z" />
    <glyph glyph-name="asterisk" unicode="*" horiz-adv-x="681" 
d="M0 1090.5q4 19.5 20 31.5l142 95l-142 94q-16 10 -20 30.5t8 36.5q10 16 30.5 20.5t37.5 -5.5l157 -107v201q0 20 13.5 34.5t36.5 14.5q20 0 34.5 -14.5t14.5 -34.5v-201l157 107q16 10 37 6t31 -21q10 -16 7 -36.5t-19 -30.5l-142 -94l142 -95q16 -12 19 -31.5t-7 -35.5
q-14 -23 -41 -23q-16 0 -27 8l-157 105v-199q0 -23 -14.5 -36t-34.5 -13q-23 0 -36.5 13.5t-13.5 35.5v199l-157 -105q-10 -8 -27 -8q-12 0 -23.5 5t-17.5 18q-12 16 -8 35.5z" />
    <glyph glyph-name="plus" unicode="+" horiz-adv-x="800" 
d="M2 616q0 23 15.5 37.5t35.5 14.5h203v202q0 23 14.5 37.5t36.5 14.5q23 0 38 -14.5t15 -37.5v-202h203q20 0 34.5 -14.5t14.5 -37.5t-14 -37t-35 -14h-203v-203q0 -23 -15 -37t-38 -14t-37 14.5t-14 36.5v203h-203q-20 0 -35.5 14.5t-15.5 36.5z" />
    <glyph glyph-name="comma" unicode="," horiz-adv-x="215" 
d="M0 39v102q0 27 17.5 44.5t43.5 17.5q27 0 44.5 -17.5t17.5 -44.5v-102q0 -27 -17.5 -44.5t-44.5 -17.5t-44 17.5t-17 44.5z" />
    <glyph glyph-name="hyphen" unicode="-" horiz-adv-x="798" 
d="M0 614q0 23 14.5 38.5t36.5 15.5h510q23 0 37 -15.5t14 -38.5t-14 -37t-37 -14h-510q-23 0 -37 14.5t-14 36.5z" />
    <glyph glyph-name="period" unicode="." horiz-adv-x="258" 
d="M59 61q0 27 17.5 44.5t44.5 17.5q25 0 43 -17.5t18 -44.5t-18.5 -44t-42.5 -17q-27 0 -44.5 17.5t-17.5 43.5z" />
    <glyph glyph-name="slash" unicode="/" horiz-adv-x="733" 
d="M0 74l393 1417q6 23 27.5 35t44.5 6q23 -8 35 -28.5t6 -43.5l-393 -1417q-4 -18 -21 -30.5t-35 -12.5q-4 0 -8 1t-8 1q-23 6 -35 27.5t-6 44.5z" />
    <glyph glyph-name="zero" unicode="0" horiz-adv-x="1126" 
d="M-6 768q0 43 1 99.5t6 119t17.5 127t34.5 125.5q29 70 66 124t86 91q59 45 130 68.5t161 23.5q170 0 288 -94q47 -37 84 -92t64 -123q20 -61 32.5 -124.5t17.5 -125t6 -118t1 -101.5v-6q0 -47 -1 -103.5t-6 -118t-17.5 -124t-32.5 -121.5q-53 -139 -148 -213
q-116 -92 -288 -92q-176 0 -293 92q-49 37 -86 91t-66 124q-23 59 -34 122.5t-16 125t-6 119t-1 104.5zM113 768q0 -43 1 -96.5t5 -110.5t15 -114.5t30 -108.5q43 -119 123 -174t209 -55q123 0 203.5 55t121.5 172q18 51 29.5 108.5t15.5 113.5t5 108.5t1 95.5v6q0 43 -1 95
t-5 108.5t-15 114t-30 110.5q-81 229 -325 229q-125 0 -207 -55t-125 -172q-18 -53 -29.5 -112.5t-15.5 -117t-5 -109.5t-1 -91zM229 766q0 23 17.5 40t42.5 17h407q23 0 41.5 -17.5t18.5 -39.5q0 -25 -18.5 -42t-41.5 -17h-407q-25 0 -42.5 17t-17.5 42z" />
    <glyph glyph-name="one" unicode="1" horiz-adv-x="829" 
d="M2.5 1095.5q-2.5 24.5 13.5 43.5l156 186q16 20 41 22.5t43 -14.5q18 -16 20.5 -40.5t-14.5 -43.5l-156 -186q-20 -21 -45 -21q-20 0 -38 13q-18 16 -20.5 40.5zM61 59q0 25 17.5 41.5t40.5 16.5h200v1360q0 25 16.5 42t41.5 17t41 -17.5t16 -41.5v-1360h201
q25 0 42 -16.5t17 -41.5t-17 -42t-42 -17h-516q-23 0 -40.5 17.5t-17.5 41.5z" />
    <glyph glyph-name="two" unicode="2" horiz-adv-x="1245" 
d="M-2 45q-10 45 31 66l43 23q43 22 110.5 63t153.5 98t174 129q78 61 161 138t150.5 162t110.5 176t43 183v4q0 4 -3 50.5t-32 105.5q-39 76 -112.5 123t-184.5 61q-25 4 -40 22.5t-11 43.5t22.5 40t42.5 11q90 -12 156 -38.5t112 -61.5t75.5 -75t48.5 -79q35 -74 39 -134
t4 -73q0 -201 -164 -417q-61 -84 -149.5 -167t-196.5 -169q-82 -66 -159 -119t-142 -94h753q23 0 40.5 -16.5t17.5 -41.5t-17.5 -42t-40.5 -17h-979q-43 0 -57 45zM-2 975q0 2 1 23.5t6 56.5t15.5 79t30.5 91q109 268 385 317q25 4 44.5 -10t23.5 -39t-10.5 -44t-36.5 -24
q-209 -37 -297 -245q-16 -41 -25.5 -78t-13.5 -66q-6 -35 -6 -61q-2 -25 -18.5 -42.5t-41.5 -17.5q-25 2 -42 18.5t-15 41.5z" />
    <glyph glyph-name="three" unicode="3" horiz-adv-x="1255" 
d="M0 537q0 25 17.5 41t41.5 16q23 0 40.5 -16.5t17.5 -40.5q0 -96 24.5 -165t64.5 -116t88 -73.5t96 -41t90 -18.5t67 -4t65.5 4t88 18.5t95.5 41t87 73.5t63.5 115.5t24.5 165.5q0 256 -211 358q-41 20 -80 31.5t-70 15.5q-37 6 -67 6q-37 0 -54 33q-16 33 9 63l389 469
q16 18 39.5 21.5t44.5 -12.5q18 -16 20 -41t-14 -43l-322 -385q35 -8 75 -20.5t81 -31.5q119 -61 190 -159q86 -127 86 -305q0 -104 -23.5 -181t-61 -133.5t-84 -94.5t-89.5 -60q-43 -23 -87 -36.5t-81.5 -19.5t-67.5 -8t-46 -2q-18 0 -49 2t-69 8t-82 19.5t-87 36.5
q-45 23 -91 59.5t-84 92.5t-61.5 134t-23.5 183zM86 1477q0 23 17.5 40t41.5 17h490q23 0 40 -17.5t17 -39.5q0 -25 -17 -42.5t-40 -17.5h-490q-25 0 -42 17.5t-17 42.5z" />
    <glyph glyph-name="four" unicode="4" horiz-adv-x="1200" 
d="M6 508q-16 33 4 61l713 944q27 33 65 21q16 -6 28.5 -22.5t12.5 -34.5v-779q0 -25 -17 -42t-42 -17t-42 17.5t-17 41.5v605l-535 -709h420q25 0 41 -17.5t16 -41.5q0 -25 -16 -41.5t-41 -16.5h-537q-39 0 -53 31zM711 59v476q0 25 17 42t42 17h262q23 0 40.5 -17.5
t17.5 -41.5q0 -25 -17.5 -41.5t-40.5 -16.5h-203v-418q0 -25 -17 -42t-42 -17t-42 17.5t-17 41.5z" />
    <glyph glyph-name="five" unicode="5" horiz-adv-x="1155" 
d="M0 467q0 25 17.5 41t39.5 16q25 0 42.5 -16t17.5 -41q0 -125 47 -196.5t110.5 -107.5t128 -45t99.5 -9q25 0 86 8t126.5 43t116 107.5t50.5 199.5q0 217 -187 307q-37 16 -71.5 25.5t-62.5 13.5t-46 5l-18 1h-154q-25 0 -41 18.5t-16 41.5q0 25 16 42t41 17h154h2
q8 0 47 -3t94 -17.5t118.5 -44t116.5 -82.5q123 -121 123 -324q0 -92 -21.5 -161.5t-56 -120t-76.5 -83t-83 -53.5q-43 -20 -84 -32.5t-76 -18.5t-60.5 -7t-37.5 -1q-16 0 -44 2t-63 8t-74.5 17.5t-78.5 31.5q-41 20 -84 53t-78 82t-57.5 119t-22.5 164zM90 879v598
q0 23 16.5 40t40.5 17h695q25 0 42 -17.5t17 -39.5q0 -25 -17.5 -42.5t-41.5 -17.5h-633v-538q0 -23 -17.5 -41.5t-44.5 -18.5q-25 0 -41 18.5t-16 41.5z" />
    <glyph glyph-name="six" unicode="6" horiz-adv-x="1060" 
d="M0 469q0 14 2 20q0 4 -1 7.5t-1 7.5v147v277v137q0 18 1 47t6 65.5t15.5 76.5t30.5 81q49 90 137 144q102 57 254 57q233 0 359 -121q29 -29 50 -64.5t36 -76.5q25 -78 24 -166q0 -25 -16 -42t-41 -17t-42 17t-17 42q0 141 -78 223q-88 88 -275 88q-213 0 -288 -141
q-29 -59 -34 -119.5t-5 -93.5v-137v-424q0 -6 -4 -19q4 -8 4 -16q0 -117 35.5 -187.5t89 -108.5t113 -50t108.5 -12q47 0 107.5 12t112.5 50t88 108.5t36 187.5q0 225 -158 311q-41 23 -88 34t-98 11q-25 0 -73 -6t-118 -47q-23 -12 -46 -6t-36 29q-12 23 -6 46t29 36
q90 51 155.5 60t94.5 9q66 0 128.5 -15t115.5 -44q37 -20 75.5 -54t69.5 -84.5t51.5 -119t20.5 -160.5q0 -156 -64 -270q-27 -47 -63.5 -84t-85.5 -62q-104 -59 -248 -59q-145 0 -252 61q-98 53 -150 146q-61 106 -61 268z" />
    <glyph glyph-name="seven" unicode="7" horiz-adv-x="1067" 
d="M0 1479q0 23 17.5 40t39.5 17h881q35 0 51 -31q18 -25 0 -59l-883 -1417q-14 -29 -49 -29q-18 0 -28 8q-23 14 -28 37t7 45l826 1331h-777q-23 0 -40 16.5t-17 41.5z" />
    <glyph glyph-name="eight" unicode="8" horiz-adv-x="1208" 
d="M-10 469q0 166 88 279q66 90 188 141q2 2 3 2t3 2q-61 33 -106 84q-78 84 -78 215q0 125 72 209q51 68 149 106q72 29 135.5 36t92.5 7h2q23 0 88 -6t141 -35q94 -39 152 -106q72 -90 71 -211q0 -131 -76 -215q-23 -23 -50 -45.5t-62 -40.5h4q61 -27 109 -62.5t83 -76.5
q90 -119 91 -283q0 -166 -82 -279q-63 -90 -181 -147q-43 -18 -87 -29.5t-81.5 -17.5t-68.5 -8t-47 -2q-43 0 -122 9t-165 48q-57 27 -103.5 62.5t-78.5 82.5q-84 111 -84 281zM109 469q0 -229 196 -317q72 -33 140.5 -40.5t97.5 -7.5q25 0 66.5 3.5t90 16.5t96.5 36.5
t87 63.5t63.5 100.5t24.5 144.5q0 227 -209 311q-33 14 -68 23.5t-63 13.5q-27 4 -46.5 23.5t-19.5 48.5t18.5 49t47.5 23q18 4 42.5 9t47.5 15q152 61 151 207q0 143 -147 205q-59 25 -114.5 29t-71.5 4h-2q-8 0 -28 -1.5t-44.5 -4.5t-54 -9t-58.5 -18q-145 -61 -145 -205
q0 -152 158 -209q23 -8 42 -13t35 -7q29 -4 47.5 -24.5t18.5 -49.5q0 -27 -18.5 -46.5t-43.5 -23.5q-29 -4 -64.5 -14t-68.5 -25q-205 -84 -204 -311z" />
    <glyph glyph-name="nine" unicode="9" horiz-adv-x="1087" 
d="M0 1067q0 164 61 272q53 96 150 148q106 59 248 59q143 0 252 -61q94 -49 151 -146q61 -111 62 -272q0 -12 -2 -18q2 -6 2 -15v-147v-277v-137q0 -18 -1 -48t-6.5 -65.5t-15.5 -76.5t-31 -80q-51 -96 -139 -146q-100 -57 -252 -57q-233 0 -360 123q-55 57 -86 139
q-10 39 -17.5 80t-7.5 88q0 23 17.5 41t40.5 18q25 0 42 -18t17 -41q0 -145 78 -223q90 -90 276 -90q211 0 285 141q35 59 40 120.5t5 94.5v137v137t-1 137.5t-1 105.5v44q0 6 4 19q-2 4 -2 14q0 119 -37 189.5t-90 109.5t-113.5 51.5t-109.5 12.5q-47 0 -106.5 -12.5
t-112 -51.5t-88 -109.5t-35.5 -189.5q0 -223 153 -313q41 -23 89.5 -33t99.5 -10q25 0 73 6t119 45q20 16 44 9t34 -30q12 -23 6 -45t-28 -34q-45 -27 -84 -41.5t-71 -20.5t-55.5 -7t-37.5 -1q-66 0 -128.5 15t-113.5 44q-37 20 -76 53t-70.5 83.5t-51 119t-19.5 160.5z" />
    <glyph glyph-name="colon" unicode=":" horiz-adv-x="294" 
d="M55 227q0 35 25.5 61.5t62.5 26.5q35 0 61.5 -26.5t26.5 -61.5q0 -37 -26.5 -62.5t-61.5 -25.5q-37 0 -62.5 25.5t-25.5 62.5zM55 938q0 35 25.5 61.5t62.5 26.5q35 0 61.5 -26.5t26.5 -61.5q0 -37 -26.5 -62.5t-61.5 -25.5q-37 0 -62.5 25.5t-25.5 62.5z" />
    <glyph glyph-name="semicolon" unicode=";" horiz-adv-x="315" 
d="M49 936q0 35 25.5 61.5t62.5 26.5t62.5 -26.5t25.5 -61.5q0 -37 -25.5 -62.5t-62.5 -25.5t-62.5 25.5t-25.5 62.5zM55 156v139q0 35 23.5 58.5t58.5 23.5t58.5 -23.5t23.5 -58.5v-139q0 -35 -23.5 -58.5t-58.5 -23.5t-58.5 23.5t-23.5 58.5z" />
    <glyph glyph-name="less" unicode="&#x3c;" horiz-adv-x="612" 
d="M0 614q0 29 16 45l390 349q18 16 41.5 16t37.5 -18q18 -18 17.5 -41t-19.5 -39l-338 -312l338 -307q18 -18 18.5 -42.5t-16.5 -41.5q-18 -18 -41 -18q-20 0 -38 14l-390 352q-16 16 -16 43z" />
    <glyph glyph-name="equal" unicode="=" horiz-adv-x="718" 
d="M0 510q0 23 14.5 37t36.5 14h510q23 0 37 -14.5t14 -36.5q0 -23 -14 -38t-37 -15h-510q-23 0 -37 15t-14 38zM0 717q0 23 14.5 37t36.5 14h510q23 0 37 -14.5t14 -36.5q0 -23 -14 -37t-37 -14h-510q-23 0 -37 14t-14 37z" />
    <glyph glyph-name="greater" unicode="&#x3e;" horiz-adv-x="612" 
d="M1 268q1 23 19 39l338 311l-338 308q-18 18 -18 42.5t16 41.5q18 18 41 18q20 0 39 -14l389 -352q16 -16 17 -44q0 -29 -17 -45l-389 -348q-18 -16 -41.5 -16t-38.5 18q-18 18 -17 41z" />
    <glyph glyph-name="question" unicode="?" horiz-adv-x="946" 
d="M0 1090q0 14 1 41.5t5 61.5t15.5 73t29.5 77q16 33 44 68t70 63.5t100.5 47t137.5 18.5q84 0 146.5 -19.5t106.5 -49t74 -65.5t48 -69q20 -39 31.5 -77.5t16.5 -72.5t6.5 -59.5t1.5 -37.5q0 -31 -8.5 -101.5t-53.5 -148.5q-47 -90 -141 -148q-45 -27 -95.5 -39
t-111.5 -18v-359q0 -25 -15 -43t-42 -18t-44.5 18.5t-17.5 42.5v412q0 27 17.5 45.5t44.5 18.5q106 0 172.5 30.5t104.5 79.5t51.5 108.5t13.5 119.5q0 23 -5.5 78t-33.5 114q-72 139 -267 139q-180 0 -241 -131q-29 -59 -34 -117.5t-5 -82.5q0 -29 -17.5 -46.5t-42.5 -17.5
q-27 0 -45 17.5t-18 46.5zM305 59q0 25 17.5 41.5t44.5 16.5t42 -16.5t15 -41.5t-15.5 -42t-41.5 -17q-27 0 -44.5 17.5t-17.5 41.5z" />
    <glyph glyph-name="at" unicode="@" horiz-adv-x="1193" 
d="M43 719q0 170 72 289q61 98 170 153q119 61 282 62q14 0 42 -1t65 -8q96 -16 166 -55q102 -55 159 -155q33 -55 50.5 -127t17.5 -158q0 -6 -1 -43t-11 -88q-20 -145 -103 -228q-4 -4 -11 -12t-17 -18q-16 -12 -35 -25q-23 -10 -39 -10t-27 4q-10 4 -24.5 16.5t-24.5 38.5
q-10 31 -10 76v25q-39 -33 -92.5 -50.5t-124.5 -17.5q-61 0 -108.5 13.5t-80 35t-55 47t-35.5 52.5q-14 25 -27.5 69t-13.5 103t13.5 102t27.5 70q12 25 35 51t55.5 47.5t79.5 35t109 13.5q86 0 145.5 -25.5t98 -67.5t57 -96.5t20.5 -109.5v-8v-289h2l7 6q35 31 51 79t22 89
q4 23 6 43.5t2 36.5v33v2q0 254 -167 346q-47 27 -102.5 38t-121.5 11q-68 0 -127 -11t-108 -38q-182 -92 -182 -346q0 -268 129 -354q57 -41 136 -50.5t152 -9.5q23 0 40.5 2t29.5 6q14 4 27 9q20 10 39.5 2.5t29.5 -27.5t2 -40.5t-28 -31.5q-4 -2 -41 -14t-99 -12
q-86 0 -179 12t-171 68q-174 119 -174 440zM334 707q0 -45 8 -76t18 -47q52 -95 187 -95q70 0 112.5 23t66.5 56.5t31 70.5t7 68t-7 67.5t-31 69.5t-67 55.5t-112 22.5q-137 0 -187 -95q-10 -16 -18 -46.5t-8 -73.5z" />
    <glyph glyph-name="A" unicode="A" horiz-adv-x="1343" 
d="M4 36.5q-10 22.5 0 45.5l588 1419q14 35 53 35t53 -35l582 -1419q10 -23 0 -45.5t-33 -32.5t-44 -1t-32 32l-526 1288l-530 -1288q-20 -35 -56 -35q-14 0 -22 4q-23 10 -33 32.5zM375 473q0 25 17.5 42t41.5 17h418q25 0 42 -17t17 -42t-17 -42t-42 -17h-418
q-25 0 -42 17.5t-17 41.5z" />
    <glyph glyph-name="B" unicode="B" horiz-adv-x="1243" 
d="M57 59v1418q0 25 17.5 42t40.5 17h573q2 0 19.5 -1t45 -6t62.5 -14.5t72 -25.5q92 -43 145 -119q33 -47 48.5 -105.5t15.5 -123.5q0 -68 -15.5 -121t-40 -93t-55.5 -68t-61 -46q8 -4 14 -6q35 -20 72 -54t66.5 -83t49 -116t19.5 -155q0 -137 -70 -227q-59 -80 -155 -123
q-41 -18 -79 -27.5t-71 -14.5t-55.5 -6t-28.5 -1h-4h-567q-23 0 -40.5 17.5t-17.5 41.5zM174 119h508h4q2 0 19.5 1t44 4t58 11.5t64.5 22.5q156 70 156 241q0 217 -149 306q-59 33 -114.5 40t-68.5 7h-4q-25 2 -41 18t-16 41q-2 23 15.5 40t39.5 19h6q6 0 21.5 1t37 5.5
t48 12.5t51.5 22q125 66 125 230q0 170 -139 241q-29 12 -55.5 19.5t-48 10.5t-34.5 4l-14 1h-514v-547h279q25 0 42 -17t17 -42q0 -23 -17.5 -41t-41.5 -18h-279v-633z" />
    <glyph glyph-name="C" unicode="C" horiz-adv-x="1339" 
d="M-6 768q0 47 1 104.5t7 119t20.5 125t40.5 122.5q33 72 78 125t103 94q131 86 336 86q274 0 430 -155q55 -57 85.5 -121t45 -119t17.5 -93t3 -44v-2q0 -25 -16 -41.5t-41 -16.5t-43.5 16.5t-18.5 43.5q0 12 -2 28q-4 27 -12 74q-29 117 -104 191q-118 120 -340 120h-4
q-162 0 -255.5 -57t-140.5 -151.5t-59 -212t-12 -236.5q0 -41 1 -92t7 -107.5t18.5 -114t34.5 -110.5q102 -233 406 -233q295 0 405 208q20 39 32.5 78t17.5 69t6 48l1 18q0 25 18.5 41.5t43.5 16.5t41 -16.5t16 -41.5q0 -2 -1 -25.5t-8 -61t-21.5 -86t-40.5 -97.5
q-25 -47 -66 -94t-102.5 -87t-145.5 -64.5t-196 -24.5q-203 0 -334 86q-113 80 -180 219q-27 61 -41.5 125.5t-21.5 127t-8 119t-1 99.5z" />
    <glyph glyph-name="D" unicode="D" horiz-adv-x="1271" 
d="M51 59v1418q0 25 16.5 42t41.5 17h403q2 0 29.5 -2t72.5 -11.5t100.5 -28.5t112.5 -54q137 -86 217 -236q94 -182 95 -436q0 -260 -88 -436q-72 -145 -201 -234q-55 -37 -106.5 -56t-93.5 -28.5t-67.5 -11.5t-27.5 -2h-446q-25 0 -41.5 17.5t-16.5 41.5zM168 117h387
l21 2q22 2 55 9t73.5 23.5t83.5 47.5q233 166 234 569q0 406 -254 567q-47 31 -92 48.5t-82 24.5t-60 9l-22 2h-344v-1302z" />
    <glyph glyph-name="E" unicode="E" horiz-adv-x="1116" 
d="M51 59v811q0 25 16.5 42.5t41.5 17.5h649q25 0 42 -17.5t17 -42.5q0 -23 -17.5 -40t-41.5 -17h-590v-694h797q25 0 41 -17.5t16 -42.5t-16 -41t-41 -16h-856q-25 0 -41.5 16.5t-16.5 40.5zM51 1116v363q0 25 16.5 41t41.5 16h856q25 0 41 -16.5t16 -40.5
q0 -25 -16.5 -42.5t-40.5 -17.5h-797v-303q0 -25 -17 -42t-42 -17t-41.5 17.5t-16.5 41.5z" />
    <glyph glyph-name="F" unicode="F" horiz-adv-x="995" 
d="M0 59v603q0 23 18.5 40t40.5 17q25 0 42.5 -17.5t17.5 -39.5v-603q0 -23 -17.5 -41t-42.5 -18q-23 0 -41 18.5t-18 40.5zM0 889v590q0 25 18.5 41t40.5 16h856q23 0 41.5 -16.5t18.5 -40.5q0 -25 -18.5 -41.5t-41.5 -16.5h-796v-471h520q25 0 43 -18.5t18 -42.5
q0 -25 -18 -41.5t-43 -16.5h-580q-23 0 -41 16.5t-18 41.5z" />
    <glyph glyph-name="G" unicode="G" horiz-adv-x="1376" 
d="M-4 768q0 45 1 102.5t7 119t20.5 125t41.5 124.5q57 135 178 215q135 88 336 88q272 0 428 -156q55 -57 85.5 -119.5t45 -117.5t17.5 -93t3 -46v-2q0 -23 -17.5 -39.5t-41.5 -16.5q-23 0 -40.5 17.5t-17.5 40.5q0 14 -2 30q-4 27 -12 74q-16 57 -44 105.5t-62 85.5
q-116 120 -338 120h-4q-162 0 -255.5 -58t-140.5 -151.5t-59 -211t-12 -236.5q0 -39 1 -90t7 -107.5t18.5 -115t34.5 -111.5q53 -117 152.5 -175t253.5 -58q217 0 333 116q18 18 41 19q25 0 42.5 -17.5t17.5 -42.5q0 -23 -17 -43q-66 -63 -165 -106t-252 -43q-203 0 -332 86
q-123 82 -180 217q-27 61 -41.5 126.5t-21.5 127t-8 118t-1 99.5zM715 532q0 25 18.5 41.5t42.5 16.5h387q23 0 40.5 -16.5t17.5 -41.5v-475q0 -23 -17.5 -40t-40.5 -17q-25 0 -42 17.5t-17 39.5v418h-328q-25 0 -43 16.5t-18 40.5z" />
    <glyph glyph-name="H" unicode="H" horiz-adv-x="1239" 
d="M51 59v471q0 23 17.5 40.5t40.5 17.5q25 0 42 -17.5t17 -40.5v-471q0 -25 -17 -42t-42 -17q-23 0 -40.5 17.5t-17.5 41.5zM51 766v711q0 25 17.5 42t40.5 17q25 0 42 -17.5t17 -41.5v-652h856q23 0 40 -17t17 -42v-707q0 -25 -17 -42t-40 -17q-25 0 -42 17.5t-17 41.5
v648h-856q-23 0 -40.5 17t-17.5 42zM965 1006v471q0 25 17 42t42 17q23 0 40 -17.5t17 -41.5v-471q0 -23 -17 -40.5t-40 -17.5q-25 0 -42 17.5t-17 40.5z" />
    <glyph glyph-name="I" unicode="I" horiz-adv-x="319" 
d="M0 59v1418q0 27 17.5 43t41.5 16q23 0 40.5 -16.5t17.5 -42.5v-1418q0 -27 -17.5 -43t-40.5 -16q-25 0 -42 16.5t-17 42.5z" />
    <glyph glyph-name="J" unicode="J" horiz-adv-x="1077" 
d="M0 532q0 25 17.5 42.5t41.5 17.5q23 0 40.5 -17.5t17.5 -42.5q0 -33 6 -69q4 -31 14 -69t27 -79q82 -198 278 -198h2q139 0 222 84q45 47 66.5 104t29.5 105q6 25 8 46t4 38q2 18 2 34v2v949q0 25 16.5 41t43.5 16q23 0 40 -16.5t17 -40.5v-949q0 -8 -2 -52t-15.5 -104.5
t-43 -129t-84.5 -123.5q-116 -121 -304 -121q-154 0 -260 86q-86 74 -131 186q-18 49 -29.5 95.5t-16.5 82t-6 58t-1 24.5z" />
    <glyph glyph-name="K" unicode="K" horiz-adv-x="1165" 
d="M45 57v518q0 18 14 37l779 901q16 20 40.5 22.5t43.5 -13.5q18 -16 20 -41t-14 -43l-490 -566l604 -778q14 -20 11.5 -43.5t-23.5 -40.5q-12 -10 -35 -10q-31 0 -45 20l-588 762l-200 -229v-496q0 -23 -16.5 -40t-41.5 -17t-42 17.5t-17 39.5zM45 905v572q0 23 17.5 41
t41.5 18q25 0 41.5 -18.5t16.5 -40.5v-572q0 -25 -16.5 -41t-41.5 -16t-42 16.5t-17 40.5z" />
    <glyph glyph-name="L" unicode="L" horiz-adv-x="1034" 
d="M0 59q0 25 17.5 41.5t41.5 16.5h779q23 0 41 -16.5t18 -41.5t-18 -42t-41 -17h-779q-25 0 -42 17.5t-17 41.5zM0 236v1241q0 25 17.5 42t41.5 17q25 0 41.5 -17.5t16.5 -41.5v-1241q0 -25 -16.5 -41.5t-41.5 -16.5t-42 16.5t-17 41.5z" />
    <glyph glyph-name="M" unicode="M" horiz-adv-x="1513" 
d="M57 57v1422q0 18 11.5 34.5t31.5 20.5q18 6 37 -1t29 -24l530 -866l537 866q10 16 28.5 23.5t36.5 1.5q20 -4 31.5 -20.5t11.5 -34.5v-1422q0 -25 -17 -41t-42 -16t-41 16.5t-16 40.5v1215l-477 -772q-20 -27 -52 -27q-33 0 -49 27l-473 772v-1215q0 -25 -16.5 -41
t-40.5 -16q-25 0 -42.5 16.5t-17.5 40.5z" />
    <glyph glyph-name="N" unicode="N" horiz-adv-x="1284" 
d="M51 59v1418q0 43 41 57q18 4 36.5 -2t29.5 -23l417 -606q12 -20 8.5 -43.5t-22.5 -38.5q-20 -14 -43.5 -10t-38.5 27l-311 450v-1229q0 -25 -16 -42t-41 -17t-42.5 17.5t-17.5 41.5zM612.5 672.5q3.5 23.5 24.5 36.5q18 16 43 12t37 -27l307 -446v1229q0 25 17.5 42
t39.5 17q25 0 42.5 -17.5t17.5 -41.5v-1418q0 -43 -41 -57q-4 0 -9.5 -1t-9.5 -1q-33 0 -47 27l-413 602q-12 20 -8.5 43.5z" />
    <glyph glyph-name="O" unicode="O" horiz-adv-x="1298" 
d="M-4 768q0 104 9 190t26 160q35 156 108 244q76 92 193 139q102 41 258 41q76 0 141.5 -11t118.5 -38q113 -45 192 -147q137 -188 138 -578q0 -186 -35 -336q-18 -72 -47 -133t-70 -111q-147 -194 -438 -194q-295 0 -438 180q-156 186 -156 594zM113 768q0 -186 31.5 -313
t93.5 -207q109 -135 352 -135q236 0 350 151q59 82 91 208t32 296q0 346 -113 504q-112 151 -360 151q-256 0 -361 -135q-116 -153 -116 -514v-6z" />
    <glyph glyph-name="P" unicode="P" horiz-adv-x="1245" 
d="M57 57v1422q0 23 16.5 40t41.5 17h526q4 0 41 -3t90 -16.5t116 -43t118 -84.5q141 -139 141 -381q0 -102 -23.5 -180t-60.5 -134.5t-82 -93.5t-88 -59q-47 -25 -91 -39.5t-79 -20.5t-57.5 -7t-24.5 -1h-61q-23 0 -40.5 17.5t-17.5 39.5q0 27 17.5 44.5t40.5 17.5h61l19 1
q18 1 45.5 6t63.5 15.5t73 30.5q186 100 186 363q0 190 -104 299q-72 68 -181 98q-43 10 -71.5 11t-30.5 1h-467v-825h201q25 0 42 -17.5t17 -44.5q0 -23 -17.5 -40t-41.5 -17h-201v-416q0 -23 -17.5 -40t-41.5 -17q-25 0 -41.5 17.5t-16.5 39.5z" />
    <glyph glyph-name="Q" unicode="Q" horiz-adv-x="1310" 
d="M-2 778q0 205 33 344q33 147 108 242q37 47 83 81t106 56q53 18 116.5 28.5t139.5 10.5q147 0 254 -47q59 -23 104 -59.5t82 -85.5q137 -186 137 -570q0 -180 -35 -329q-20 -70 -46.5 -129.5t-61.5 -106.5q-20 -25 -47 -25q-23 0 -39.5 17.5t-16.5 42.5q0 18 9 35h2
q121 158 121 495q0 342 -111 496q-55 78 -142 114.5t-210 36.5q-254 0 -359 -137q-112 -144 -112 -504v-6q0 -358 123 -508q106 -137 348 -137q129 0 221 47q16 8 34.5 6t32.5 -16l213 -213q16 -16 16.5 -39.5t-16.5 -42.5q-16 -16 -40.5 -16t-40.5 16l-183 184
q-53 -23 -112.5 -34t-124.5 -11q-291 0 -434 181q-152 182 -152 583z" />
    <glyph glyph-name="R" unicode="R" horiz-adv-x="1302" 
d="M72 57v1420q0 25 17 42t42 17h500q6 0 45 -3t96 -17.5t123 -46t125 -89.5q141 -139 141 -374q0 -154 -49 -265q-41 -92 -121 -161q-20 -16 -43.5 -13.5t-40.5 19.5q-16 18 -12 42.5t20 41.5q127 106 127 336q0 188 -104 292q-47 47 -101.5 71t-95.5 34q-49 8 -79 12
q-18 2 -31 2h-441v-825h523q23 0 41 -19l438 -475q16 -16 15 -40.5t-19 -41.5q-16 -16 -41 -16q-27 0 -41 20l-422 453h-494v-416q0 -23 -18 -40t-41 -17q-25 0 -42 17.5t-17 39.5z" />
    <glyph glyph-name="S" unicode="S" horiz-adv-x="1015" 
d="M-4 393q0 25 17.5 43.5t41.5 18.5q23 0 41.5 -18.5t18.5 -43.5q0 -2 5 -46t36 -97q82 -139 288 -139q328 0 328 282q0 264 -229 307q-25 4 -38 24.5t-7 45.5q4 25 23.5 37t45.5 8q111 -18 185 -84q65 -51 100 -131q29 -66 34 -124t5 -83q0 -29 -7 -92t-48 -133
q-27 -41 -63 -71.5t-81 -53.5q-47 -23 -110.5 -36t-137.5 -13q-86 0 -150.5 18.5t-111.5 47t-78.5 63.5t-50.5 70q-20 37 -31.5 72.5t-17.5 63t-7 45t-1 19.5zM-4 1128q0 10 1 34t5 55q8 39 19.5 73.5t31.5 67.5q47 80 140 131q49 25 112.5 39t136.5 14q86 0 149.5 -19.5
t111 -49t79 -66.5t52.5 -72q39 -72 48 -131t9 -74v-2q0 -25 -17.5 -42t-39.5 -17q-25 0 -42.5 16.5t-17.5 40.5h-2h2l-1 14q-1 15 -6 36.5t-13.5 48t-24.5 55.5q-82 145 -287 145q-102 0 -165.5 -27.5t-99.5 -70.5t-49 -96t-13 -103q0 -45 10 -93t37.5 -90t77 -72.5
t129.5 -41.5q23 -4 38 -23.5t11 -41.5q-4 -23 -19.5 -37t-38.5 -14q-6 0 -8 2q-123 12 -202 74q-74 53 -109 131q-16 33 -25.5 64.5t-13.5 59t-5 49t-1 33.5z" />
    <glyph glyph-name="T" unicode="T" horiz-adv-x="1226" 
d="M0 1477q0 25 17.5 42t41.5 17h971q25 0 42.5 -17.5t17.5 -41.5q0 -23 -17.5 -40.5t-42.5 -17.5h-971q-25 0 -42 17.5t-17 40.5zM483 59v1215q0 23 16.5 40t43.5 17q25 0 42 -17.5t17 -39.5v-1215q0 -25 -17 -42t-42 -17q-27 0 -43.5 17.5t-16.5 41.5z" />
    <glyph glyph-name="U" unicode="U" horiz-adv-x="1187" 
d="M51 526v951q0 27 16.5 43t43.5 16q23 0 39 -16.5t16 -42.5v-951q0 -2 1 -20.5t7 -49t16.5 -68.5t28.5 -77q92 -198 334 -198h2q242 0 338 202q18 39 27.5 78t14.5 69t6 48l1 18v949q0 27 16.5 43t40.5 16q25 0 42.5 -16.5t17.5 -42.5v-949q0 -2 -1 -25.5t-7.5 -60
t-18.5 -83t-35 -95.5q-29 -59 -65.5 -105t-83.5 -79q-123 -86 -293 -86q-219 0 -350 131q-57 59 -88 128t-45.5 128t-17.5 100t-3 45z" />
    <glyph glyph-name="V" unicode="V" horiz-adv-x="1382" 
d="M12 1454q-10 23 0.5 45.5t32.5 32.5q23 8 44.5 -1t31.5 -34l524 -1284l533 1286q16 37 55 37q8 0 20 -4q23 -10 32 -32.5t-1 -45.5l-584 -1417q-14 -37 -55 -37q-37 0 -53 37z" />
    <glyph glyph-name="W" unicode="W" horiz-adv-x="1718" 
d="M8 1460q-6 27 7.5 47.5t37.5 26.5q23 4 43.5 -8.5t26.5 -36.5l309 -1243l219 528q10 23 33 32t45 -1q23 -8 32 -30.5t1 -45.5l-291 -694q-6 -16 -20.5 -25.5t-30.5 -9.5h-6q-41 4 -52 43zM758 983q-10 23 0 45.5t33 30.5q23 10 44 1t31 -32l316 -780l309 1241
q8 25 28.5 37t45.5 8q23 -6 35 -26.5t6 -47.5l-351 -1417q-10 -39 -55 -43h-2q-18 0 -33.5 9t-21.5 26z" />
    <glyph glyph-name="X" unicode="X" horiz-adv-x="1271" 
d="M0 1486.5q4 24.5 23 39.5q20 14 43.5 11t37.5 -24l529 -710q14 -18 13.5 -36.5t-13.5 -35.5l-529 -706q-16 -25 -45 -25q-16 0 -36 10q-18 16 -22.5 40t11.5 44l502 674l-502 674q-16 20 -12 44.5zM629 641q4 25 24 39t43 11t39 -23l432 -574q14 -18 10.5 -42.5
t-22.5 -41.5q-17 -10 -35 -10q-33 0 -47 25l-432 573q-16 18 -12 43zM629 896q-4 26 12 42l432 575q16 20 39 23.5t43 -10.5q18 -14 22.5 -40t-10.5 -44l-432 -574q-18 -24 -47 -24q-18 0 -35 10q-20 16 -24 42z" />
    <glyph glyph-name="Y" unicode="Y" horiz-adv-x="1196" 
d="M9 1487.5q5 23.5 24 38.5q23 14 45 9t39 -24l221 -323q14 -20 10 -44t-24 -38q-17 -10 -33 -10q-31 0 -49 24l-222 324q-16 20 -11 43.5zM370 964.5q5 22.5 23 36.5q23 16 45.5 11.5t36.5 -25.5l78 -115l438 639q14 18 38 23.5t44 -8.5t25.5 -38t-8.5 -44l-478 -692v-695
q0 -23 -16 -40t-43 -17q-25 0 -41 17.5t-16 39.5v695l-117 170q-14 20 -9 42.5z" />
    <glyph glyph-name="Z" unicode="Z" horiz-adv-x="1263" 
d="M2 1479q0 25 18.5 41t42.5 16h654q25 0 42 -16.5t17 -40.5q0 -25 -17 -41.5t-42 -16.5h-654q-25 0 -43 16.5t-18 41.5zM3 61.5q1 16.5 11 28.5l973 1421q14 23 38 27t42 -10q23 -14 27 -38t-11 -44l-909 -1329h862q23 0 40.5 -17.5t17.5 -42.5t-17.5 -41t-40.5 -16h-973
q-37 0 -53 31q-8 14 -7 30.5z" />
    <glyph glyph-name="bracketleft" unicode="[" horiz-adv-x="417" 
d="M0 57v1418q0 25 17.5 43t43.5 18h191q27 0 44 -18.5t17 -42.5q0 -23 -17 -40.5t-44 -17.5h-133v-1298h133q27 0 44 -18.5t17 -43.5t-17 -41t-44 -16h-191q-27 0 -44 16.5t-17 40.5z" />
    <glyph glyph-name="backslash" unicode="\" horiz-adv-x="651" 
d="M4 1462q-6 23 5 44.5t36 27.5q23 6 44.5 -5t27.5 -36l393 -1419q6 -25 -6 -45.5t-37 -26.5q-4 -2 -14 -2q-18 0 -35 11.5t-21 29.5z" />
    <glyph glyph-name="bracketright" unicode="]" horiz-adv-x="432" 
d="M-2 61q0 23 17.5 40.5t43.5 17.5h134v1298h-134q-27 0 -44 18.5t-17 43.5t17 41t44 16h191q27 0 44 -16.5t17 -40.5v-1418q0 -25 -17.5 -43t-43.5 -18h-191q-27 0 -44 18.5t-17 42.5z" />
    <glyph glyph-name="asciicircum" unicode="^" horiz-adv-x="667" 
d="M7.5 1240q-3.5 24 12.5 42l195 234q18 23 45 22q27 0 45 -22l193 -234q16 -18 13 -41.5t-22 -40.5q-8 -8 -17 -10t-19 -2q-12 0 -24.5 5t-22.5 17l-146 179l-147 -179q-16 -20 -41 -23t-43 13t-21.5 40z" />
    <glyph glyph-name="underscore" unicode="_" horiz-adv-x="782" 
d="M0 -51q0 23 15.5 37t37.5 14h508q23 0 37 -14.5t14 -36.5q0 -23 -14 -37t-37 -14h-508q-23 0 -38 14t-15 37z" />
    <glyph glyph-name="grave" unicode="`" horiz-adv-x="169" 
d="M6 1241l43 250q2 23 17.5 33t37.5 6q20 0 33 -17.5t8 -39.5l-43 -246q-2 -16 -17.5 -28.5t-27.5 -12.5h-12q-18 4 -30.5 21.5t-8.5 33.5z" />
    <glyph glyph-name="a" unicode="a" horiz-adv-x="1343" 
d="M4 36.5q-10 22.5 0 45.5l588 1419q14 35 53 35t53 -35l582 -1419q10 -23 0 -45.5t-33 -32.5t-44 -1t-32 32l-526 1288l-530 -1288q-20 -35 -56 -35q-14 0 -22 4q-23 10 -33 32.5zM375 473q0 25 17.5 42t41.5 17h418q25 0 42 -17t17 -42t-17 -42t-42 -17h-418
q-25 0 -42 17.5t-17 41.5z" />
    <glyph glyph-name="b" unicode="b" horiz-adv-x="1243" 
d="M57 59v1418q0 25 17.5 42t40.5 17h573q2 0 19.5 -1t45 -6t62.5 -14.5t72 -25.5q92 -43 145 -119q33 -47 48.5 -105.5t15.5 -123.5q0 -68 -15.5 -121t-40 -93t-55.5 -68t-61 -46q8 -4 14 -6q35 -20 72 -54t66.5 -83t49 -116t19.5 -155q0 -137 -70 -227q-59 -80 -155 -123
q-41 -18 -79 -27.5t-71 -14.5t-55.5 -6t-28.5 -1h-4h-567q-23 0 -40.5 17.5t-17.5 41.5zM174 119h508h4q2 0 19.5 1t44 4t58 11.5t64.5 22.5q156 70 156 241q0 217 -149 306q-59 33 -114.5 40t-68.5 7h-4q-25 2 -41 18t-16 41q-2 23 15.5 40t39.5 19h6q6 0 21.5 1t37 5.5
t48 12.5t51.5 22q125 66 125 230q0 170 -139 241q-29 12 -55.5 19.5t-48 10.5t-34.5 4l-14 1h-514v-547h279q25 0 42 -17t17 -42q0 -23 -17.5 -41t-41.5 -18h-279v-633z" />
    <glyph glyph-name="c" unicode="c" horiz-adv-x="1339" 
d="M-6 768q0 47 1 104.5t7 119t20.5 125t40.5 122.5q33 72 78 125t103 94q131 86 336 86q274 0 430 -155q55 -57 85.5 -121t45 -119t17.5 -93t3 -44v-2q0 -25 -16 -41.5t-41 -16.5t-43.5 16.5t-18.5 43.5q0 12 -2 28q-4 27 -12 74q-29 117 -104 191q-118 120 -340 120h-4
q-162 0 -255.5 -57t-140.5 -151.5t-59 -212t-12 -236.5q0 -41 1 -92t7 -107.5t18.5 -114t34.5 -110.5q102 -233 406 -233q295 0 405 208q20 39 32.5 78t17.5 69t6 48l1 18q0 25 18.5 41.5t43.5 16.5t41 -16.5t16 -41.5q0 -2 -1 -25.5t-8 -61t-21.5 -86t-40.5 -97.5
q-25 -47 -66 -94t-102.5 -87t-145.5 -64.5t-196 -24.5q-203 0 -334 86q-113 80 -180 219q-27 61 -41.5 125.5t-21.5 127t-8 119t-1 99.5z" />
    <glyph glyph-name="d" unicode="d" horiz-adv-x="1271" 
d="M51 59v1418q0 25 16.5 42t41.5 17h403q2 0 29.5 -2t72.5 -11.5t100.5 -28.5t112.5 -54q137 -86 217 -236q94 -182 95 -436q0 -260 -88 -436q-72 -145 -201 -234q-55 -37 -106.5 -56t-93.5 -28.5t-67.5 -11.5t-27.5 -2h-446q-25 0 -41.5 17.5t-16.5 41.5zM168 117h387
l21 2q22 2 55 9t73.5 23.5t83.5 47.5q233 166 234 569q0 406 -254 567q-47 31 -92 48.5t-82 24.5t-60 9l-22 2h-344v-1302z" />
    <glyph glyph-name="e" unicode="e" horiz-adv-x="1116" 
d="M51 59v811q0 25 16.5 42.5t41.5 17.5h649q25 0 42 -17.5t17 -42.5q0 -23 -17.5 -40t-41.5 -17h-590v-694h797q25 0 41 -17.5t16 -42.5t-16 -41t-41 -16h-856q-25 0 -41.5 16.5t-16.5 40.5zM51 1116v363q0 25 16.5 41t41.5 16h856q25 0 41 -16.5t16 -40.5
q0 -25 -16.5 -42.5t-40.5 -17.5h-797v-303q0 -25 -17 -42t-42 -17t-41.5 17.5t-16.5 41.5z" />
    <glyph glyph-name="f" unicode="f" horiz-adv-x="995" 
d="M0 59v603q0 23 18.5 40t40.5 17q25 0 42.5 -17.5t17.5 -39.5v-603q0 -23 -17.5 -41t-42.5 -18q-23 0 -41 18.5t-18 40.5zM0 889v590q0 25 18.5 41t40.5 16h856q23 0 41.5 -16.5t18.5 -40.5q0 -25 -18.5 -41.5t-41.5 -16.5h-796v-471h520q25 0 43 -18.5t18 -42.5
q0 -25 -18 -41.5t-43 -16.5h-580q-23 0 -41 16.5t-18 41.5z" />
    <glyph glyph-name="g" unicode="g" horiz-adv-x="1376" 
d="M-4 768q0 45 1 102.5t7 119t20.5 125t41.5 124.5q57 135 178 215q135 88 336 88q272 0 428 -156q55 -57 85.5 -119.5t45 -117.5t17.5 -93t3 -46v-2q0 -23 -17.5 -39.5t-41.5 -16.5q-23 0 -40.5 17.5t-17.5 40.5q0 14 -2 30q-4 27 -12 74q-16 57 -44 105.5t-62 85.5
q-116 120 -338 120h-4q-162 0 -255.5 -58t-140.5 -151.5t-59 -211t-12 -236.5q0 -39 1 -90t7 -107.5t18.5 -115t34.5 -111.5q53 -117 152.5 -175t253.5 -58q217 0 333 116q18 18 41 19q25 0 42.5 -17.5t17.5 -42.5q0 -23 -17 -43q-66 -63 -165 -106t-252 -43q-203 0 -332 86
q-123 82 -180 217q-27 61 -41.5 126.5t-21.5 127t-8 118t-1 99.5zM715 532q0 25 18.5 41.5t42.5 16.5h387q23 0 40.5 -16.5t17.5 -41.5v-475q0 -23 -17.5 -40t-40.5 -17q-25 0 -42 17.5t-17 39.5v418h-328q-25 0 -43 16.5t-18 40.5z" />
    <glyph glyph-name="h" unicode="h" horiz-adv-x="1239" 
d="M51 59v471q0 23 17.5 40.5t40.5 17.5q25 0 42 -17.5t17 -40.5v-471q0 -25 -17 -42t-42 -17q-23 0 -40.5 17.5t-17.5 41.5zM51 766v711q0 25 17.5 42t40.5 17q25 0 42 -17.5t17 -41.5v-652h856q23 0 40 -17t17 -42v-707q0 -25 -17 -42t-40 -17q-25 0 -42 17.5t-17 41.5
v648h-856q-23 0 -40.5 17t-17.5 42zM965 1006v471q0 25 17 42t42 17q23 0 40 -17.5t17 -41.5v-471q0 -23 -17 -40.5t-40 -17.5q-25 0 -42 17.5t-17 40.5z" />
    <glyph glyph-name="i" unicode="i" horiz-adv-x="319" 
d="M0 59v1418q0 27 17.5 43t41.5 16q23 0 40.5 -16.5t17.5 -42.5v-1418q0 -27 -17.5 -43t-40.5 -16q-25 0 -42 16.5t-17 42.5z" />
    <glyph glyph-name="j" unicode="j" horiz-adv-x="1077" 
d="M0 532q0 25 17.5 42.5t41.5 17.5q23 0 40.5 -17.5t17.5 -42.5q0 -33 6 -69q4 -31 14 -69t27 -79q82 -198 278 -198h2q139 0 222 84q45 47 66.5 104t29.5 105q6 25 8 46t4 38q2 18 2 34v2v949q0 25 16.5 41t43.5 16q23 0 40 -16.5t17 -40.5v-949q0 -8 -2 -52t-15.5 -104.5
t-43 -129t-84.5 -123.5q-116 -121 -304 -121q-154 0 -260 86q-86 74 -131 186q-18 49 -29.5 95.5t-16.5 82t-6 58t-1 24.5z" />
    <glyph glyph-name="k" unicode="k" horiz-adv-x="1165" 
d="M45 57v518q0 18 14 37l779 901q16 20 40.5 22.5t43.5 -13.5q18 -16 20 -41t-14 -43l-490 -566l604 -778q14 -20 11.5 -43.5t-23.5 -40.5q-12 -10 -35 -10q-31 0 -45 20l-588 762l-200 -229v-496q0 -23 -16.5 -40t-41.5 -17t-42 17.5t-17 39.5zM45 905v572q0 23 17.5 41
t41.5 18q25 0 41.5 -18.5t16.5 -40.5v-572q0 -25 -16.5 -41t-41.5 -16t-42 16.5t-17 40.5z" />
    <glyph glyph-name="l" unicode="l" horiz-adv-x="1034" 
d="M0 59q0 25 17.5 41.5t41.5 16.5h779q23 0 41 -16.5t18 -41.5t-18 -42t-41 -17h-779q-25 0 -42 17.5t-17 41.5zM0 236v1241q0 25 17.5 42t41.5 17q25 0 41.5 -17.5t16.5 -41.5v-1241q0 -25 -16.5 -41.5t-41.5 -16.5t-42 16.5t-17 41.5z" />
    <glyph glyph-name="m" unicode="m" horiz-adv-x="1513" 
d="M57 57v1422q0 18 11.5 34.5t31.5 20.5q18 6 37 -1t29 -24l530 -866l537 866q10 16 28.5 23.5t36.5 1.5q20 -4 31.5 -20.5t11.5 -34.5v-1422q0 -25 -17 -41t-42 -16t-41 16.5t-16 40.5v1215l-477 -772q-20 -27 -52 -27q-33 0 -49 27l-473 772v-1215q0 -25 -16.5 -41
t-40.5 -16q-25 0 -42.5 16.5t-17.5 40.5z" />
    <glyph glyph-name="n" unicode="n" horiz-adv-x="1284" 
d="M51 59v1418q0 43 41 57q18 4 36.5 -2t29.5 -23l417 -606q12 -20 8.5 -43.5t-22.5 -38.5q-20 -14 -43.5 -10t-38.5 27l-311 450v-1229q0 -25 -16 -42t-41 -17t-42.5 17.5t-17.5 41.5zM612.5 672.5q3.5 23.5 24.5 36.5q18 16 43 12t37 -27l307 -446v1229q0 25 17.5 42
t39.5 17q25 0 42.5 -17.5t17.5 -41.5v-1418q0 -43 -41 -57q-4 0 -9.5 -1t-9.5 -1q-33 0 -47 27l-413 602q-12 20 -8.5 43.5z" />
    <glyph glyph-name="o" unicode="o" horiz-adv-x="1298" 
d="M-4 768q0 104 9 190t26 160q35 156 108 244q76 92 193 139q102 41 258 41q76 0 141.5 -11t118.5 -38q113 -45 192 -147q137 -188 138 -578q0 -186 -35 -336q-18 -72 -47 -133t-70 -111q-147 -194 -438 -194q-295 0 -438 180q-156 186 -156 594zM113 768q0 -186 31.5 -313
t93.5 -207q109 -135 352 -135q236 0 350 151q59 82 91 208t32 296q0 346 -113 504q-112 151 -360 151q-256 0 -361 -135q-116 -153 -116 -514v-6z" />
    <glyph glyph-name="p" unicode="p" horiz-adv-x="1245" 
d="M57 57v1422q0 23 16.5 40t41.5 17h526q4 0 41 -3t90 -16.5t116 -43t118 -84.5q141 -139 141 -381q0 -102 -23.5 -180t-60.5 -134.5t-82 -93.5t-88 -59q-47 -25 -91 -39.5t-79 -20.5t-57.5 -7t-24.5 -1h-61q-23 0 -40.5 17.5t-17.5 39.5q0 27 17.5 44.5t40.5 17.5h61l19 1
q18 1 45.5 6t63.5 15.5t73 30.5q186 100 186 363q0 190 -104 299q-72 68 -181 98q-43 10 -71.5 11t-30.5 1h-467v-825h201q25 0 42 -17.5t17 -44.5q0 -23 -17.5 -40t-41.5 -17h-201v-416q0 -23 -17.5 -40t-41.5 -17q-25 0 -41.5 17.5t-16.5 39.5z" />
    <glyph glyph-name="q" unicode="q" horiz-adv-x="1310" 
d="M-2 778q0 205 33 344q33 147 108 242q37 47 83 81t106 56q53 18 116.5 28.5t139.5 10.5q147 0 254 -47q59 -23 104 -59.5t82 -85.5q137 -186 137 -570q0 -180 -35 -329q-20 -70 -46.5 -129.5t-61.5 -106.5q-20 -25 -47 -25q-23 0 -39.5 17.5t-16.5 42.5q0 18 9 35h2
q121 158 121 495q0 342 -111 496q-55 78 -142 114.5t-210 36.5q-254 0 -359 -137q-112 -144 -112 -504v-6q0 -358 123 -508q106 -137 348 -137q129 0 221 47q16 8 34.5 6t32.5 -16l213 -213q16 -16 16.5 -39.5t-16.5 -42.5q-16 -16 -40.5 -16t-40.5 16l-183 184
q-53 -23 -112.5 -34t-124.5 -11q-291 0 -434 181q-152 182 -152 583z" />
    <glyph glyph-name="r" unicode="r" horiz-adv-x="1302" 
d="M72 57v1420q0 25 17 42t42 17h500q6 0 45 -3t96 -17.5t123 -46t125 -89.5q141 -139 141 -374q0 -154 -49 -265q-41 -92 -121 -161q-20 -16 -43.5 -13.5t-40.5 19.5q-16 18 -12 42.5t20 41.5q127 106 127 336q0 188 -104 292q-47 47 -101.5 71t-95.5 34q-49 8 -79 12
q-18 2 -31 2h-441v-825h523q23 0 41 -19l438 -475q16 -16 15 -40.5t-19 -41.5q-16 -16 -41 -16q-27 0 -41 20l-422 453h-494v-416q0 -23 -18 -40t-41 -17q-25 0 -42 17.5t-17 39.5z" />
    <glyph glyph-name="s" unicode="s" horiz-adv-x="1015" 
d="M-4 393q0 25 17.5 43.5t41.5 18.5q23 0 41.5 -18.5t18.5 -43.5q0 -2 5 -46t36 -97q82 -139 288 -139q328 0 328 282q0 264 -229 307q-25 4 -38 24.5t-7 45.5q4 25 23.5 37t45.5 8q111 -18 185 -84q65 -51 100 -131q29 -66 34 -124t5 -83q0 -29 -7 -92t-48 -133
q-27 -41 -63 -71.5t-81 -53.5q-47 -23 -110.5 -36t-137.5 -13q-86 0 -150.5 18.5t-111.5 47t-78.5 63.5t-50.5 70q-20 37 -31.5 72.5t-17.5 63t-7 45t-1 19.5zM-4 1128q0 10 1 34t5 55q8 39 19.5 73.5t31.5 67.5q47 80 140 131q49 25 112.5 39t136.5 14q86 0 149.5 -19.5
t111 -49t79 -66.5t52.5 -72q39 -72 48 -131t9 -74v-2q0 -25 -17.5 -42t-39.5 -17q-25 0 -42.5 16.5t-17.5 40.5h-2h2l-1 14q-1 15 -6 36.5t-13.5 48t-24.5 55.5q-82 145 -287 145q-102 0 -165.5 -27.5t-99.5 -70.5t-49 -96t-13 -103q0 -45 10 -93t37.5 -90t77 -72.5
t129.5 -41.5q23 -4 38 -23.5t11 -41.5q-4 -23 -19.5 -37t-38.5 -14q-6 0 -8 2q-123 12 -202 74q-74 53 -109 131q-16 33 -25.5 64.5t-13.5 59t-5 49t-1 33.5z" />
    <glyph glyph-name="t" unicode="t" horiz-adv-x="1226" 
d="M0 1477q0 25 17.5 42t41.5 17h971q25 0 42.5 -17.5t17.5 -41.5q0 -23 -17.5 -40.5t-42.5 -17.5h-971q-25 0 -42 17.5t-17 40.5zM483 59v1215q0 23 16.5 40t43.5 17q25 0 42 -17.5t17 -39.5v-1215q0 -25 -17 -42t-42 -17q-27 0 -43.5 17.5t-16.5 41.5z" />
    <glyph glyph-name="u" unicode="u" horiz-adv-x="1187" 
d="M51 526v951q0 27 16.5 43t43.5 16q23 0 39 -16.5t16 -42.5v-951q0 -2 1 -20.5t7 -49t16.5 -68.5t28.5 -77q92 -198 334 -198h2q242 0 338 202q18 39 27.5 78t14.5 69t6 48l1 18v949q0 27 16.5 43t40.5 16q25 0 42.5 -16.5t17.5 -42.5v-949q0 -2 -1 -25.5t-7.5 -60
t-18.5 -83t-35 -95.5q-29 -59 -65.5 -105t-83.5 -79q-123 -86 -293 -86q-219 0 -350 131q-57 59 -88 128t-45.5 128t-17.5 100t-3 45z" />
    <glyph glyph-name="v" unicode="v" horiz-adv-x="1382" 
d="M12 1454q-10 23 0.5 45.5t32.5 32.5q23 8 44.5 -1t31.5 -34l524 -1284l533 1286q16 37 55 37q8 0 20 -4q23 -10 32 -32.5t-1 -45.5l-584 -1417q-14 -37 -55 -37q-37 0 -53 37z" />
    <glyph glyph-name="w" unicode="w" horiz-adv-x="1718" 
d="M8 1460q-6 27 7.5 47.5t37.5 26.5q23 4 43.5 -8.5t26.5 -36.5l309 -1243l219 528q10 23 33 32t45 -1q23 -8 32 -30.5t1 -45.5l-291 -694q-6 -16 -20.5 -25.5t-30.5 -9.5h-6q-41 4 -52 43zM758 983q-10 23 0 45.5t33 30.5q23 10 44 1t31 -32l316 -780l309 1241
q8 25 28.5 37t45.5 8q23 -6 35 -26.5t6 -47.5l-351 -1417q-10 -39 -55 -43h-2q-18 0 -33.5 9t-21.5 26z" />
    <glyph glyph-name="x" unicode="x" horiz-adv-x="1271" 
d="M0 1486.5q4 24.5 23 39.5q20 14 43.5 11t37.5 -24l529 -710q14 -18 13.5 -36.5t-13.5 -35.5l-529 -706q-16 -25 -45 -25q-16 0 -36 10q-18 16 -22.5 40t11.5 44l502 674l-502 674q-16 20 -12 44.5zM629 641q4 25 24 39t43 11t39 -23l432 -574q14 -18 10.5 -42.5
t-22.5 -41.5q-17 -10 -35 -10q-33 0 -47 25l-432 573q-16 18 -12 43zM629 896q-4 26 12 42l432 575q16 20 39 23.5t43 -10.5q18 -14 22.5 -40t-10.5 -44l-432 -574q-18 -24 -47 -24q-18 0 -35 10q-20 16 -24 42z" />
    <glyph glyph-name="y" unicode="y" horiz-adv-x="1196" 
d="M9 1487.5q5 23.5 24 38.5q23 14 45 9t39 -24l221 -323q14 -20 10 -44t-24 -38q-17 -10 -33 -10q-31 0 -49 24l-222 324q-16 20 -11 43.5zM370 964.5q5 22.5 23 36.5q23 16 45.5 11.5t36.5 -25.5l78 -115l438 639q14 18 38 23.5t44 -8.5t25.5 -38t-8.5 -44l-478 -692v-695
q0 -23 -16 -40t-43 -17q-25 0 -41 17.5t-16 39.5v695l-117 170q-14 20 -9 42.5z" />
    <glyph glyph-name="z" unicode="z" horiz-adv-x="1263" 
d="M2 1479q0 25 18.5 41t42.5 16h654q25 0 42 -16.5t17 -40.5q0 -25 -17 -41.5t-42 -16.5h-654q-25 0 -43 16.5t-18 41.5zM3 61.5q1 16.5 11 28.5l973 1421q14 23 38 27t42 -10q23 -14 27 -38t-11 -44l-909 -1329h862q23 0 40.5 -17.5t17.5 -42.5t-17.5 -41t-40.5 -16h-973
q-37 0 -53 31q-8 14 -7 30.5z" />
    <glyph glyph-name="braceleft" unicode="{" horiz-adv-x="655" 
d="M0 770q0 23 16.5 40t42.5 17h97q10 414 102 590q25 43 48.5 66.5t44 36t35.5 14.5t22 2q23 0 40 -16.5t17 -40.5q0 -23 -15.5 -40.5t-37.5 -21.5q-4 0 -23.5 -16.5t-42.5 -71.5q-27 -59 -50.5 -190t-23.5 -369q0 -121 6.5 -213t17.5 -159.5t24.5 -113.5t25.5 -77
q23 -55 42.5 -71.5t23.5 -16.5q23 -4 38 -21.5t15 -40.5q0 -25 -17.5 -41t-39.5 -16q-6 0 -21.5 2t-36 14.5t-44 36t-48.5 66.5q-92 176 -102 590h-97q-27 0 -43 18t-16 43z" />
    <glyph glyph-name="bar" unicode="|" horiz-adv-x="321" 
d="M78 1593q0 25 17.5 42.5t41.5 17.5h2q25 0 43.5 -17.5t18.5 -42.5v-1667q0 -27 -17.5 -44t-42.5 -17q-27 0 -44 17.5t-17 43.5z" />
    <glyph glyph-name="braceright" unicode="}" horiz-adv-x="653" 
d="M-2 57q0 23 15.5 40.5t37.5 21.5q4 0 23.5 16.5t42.5 71.5q27 59 50 190t23 369q0 121 -6 213t-17 159.5t-24.5 113.5t-25.5 77q-23 55 -42.5 71.5t-23.5 16.5q-23 4 -38 21.5t-15 40.5q0 25 17.5 41t39.5 16q6 0 21.5 -2t36 -14.5t44 -36t48.5 -66.5q92 -176 102 -590
h96q27 0 43.5 -18t16.5 -43q0 -23 -16.5 -40t-43.5 -17h-96q-10 -414 -102 -590q-25 -43 -48.5 -66.5t-44 -36t-36 -14.5t-21.5 -2q-23 0 -40 16.5t-17 40.5z" />
    <glyph glyph-name="asciitilde" unicode="~" 
 />
    <glyph glyph-name="uni00A0" unicode="&#xa0;" horiz-adv-x="405" 
 />
    <glyph glyph-name="sterling" unicode="&#xa3;" horiz-adv-x="1005" 
d="M-59 59q0 25 16 41.5t39 20.5q4 0 19.5 8t35.5 43t42 120t22 245q0 25 17.5 41t39.5 16q27 0 44 -16.5t17 -40.5q0 -276 -75 -416h723q25 0 41 -18.5t16 -43.5q0 -23 -16.5 -41t-40.5 -18h-881q-27 0 -43 18.5t-16 40.5zM116 1108q1 49 11 102q20 139 106 228
q53 55 128 81.5t169 26.5q109 0 187 -33q76 -31 125 -90q43 -49 63.5 -105t27.5 -105.5t6 -82t-1 -34.5q-2 -23 -18.5 -39.5t-38.5 -16.5q-27 0 -43.5 18.5t-16.5 41.5v8q0 6 1 30.5t-4 60.5t-19.5 75t-42.5 74q-76 82 -226 82q-139 0 -213 -74q-35 -35 -52 -80t-24.5 -90
t-7.5 -85v-65v-22v-240h474q23 0 41 -17.5t18 -41.5q0 -25 -18.5 -42.5t-40.5 -17.5h-531q-27 0 -43 17.5t-16 42.5v299v16q-2 29 -1 78z" />
    <glyph glyph-name="copyright" unicode="&#xa9;" horiz-adv-x="845" 
d="M0 1198q0 70 29 133q23 63 71 103q43 49 105 73q33 16 65.5 21.5t65.5 5.5q35 0 67.5 -5t65.5 -22q29 -12 55.5 -30.5t46.5 -42.5q25 -20 43.5 -47t30.5 -56q16 -35 21.5 -66.5t5.5 -66.5q0 -33 -5 -66.5t-22 -62.5q-12 -33 -30.5 -58.5t-43.5 -47.5q-39 -49 -102 -72
q-33 -16 -65.5 -22.5t-67.5 -6.5q-33 0 -65.5 6t-65.5 23q-59 20 -105 72q-25 23 -43 48t-28 58q-16 29 -22.5 62.5t-6.5 66.5zM90 1198q0 -51 19.5 -95t53.5 -78t78 -53.5t95 -19.5t96 19.5t78 53.5t52.5 78t19.5 95t-19.5 96t-52.5 78t-78 52.5t-96 19.5t-95 -19.5
t-78 -52.5t-53.5 -78t-19.5 -96zM137 1198q0 84 57.5 141.5t141.5 57.5q53 0 100 -27t76 -74q10 -18 3 -36.5t-23 -26.5q-16 -10 -35 -5t-29 21q-12 27 -37.5 42.5t-54.5 15.5q-47 0 -78 -31t-31 -78q0 -45 31 -75.5t78 -30.5q66 0 98 59q6 16 24.5 22.5t35.5 -4.5
q16 -8 22 -25.5t-2 -33.5q-12 -25 -29.5 -45.5t-42.5 -32.5q-47 -33 -106 -33q-84 0 -141.5 57.5t-57.5 141.5z" />
    <glyph glyph-name="uni00AD" unicode="&#xad;" horiz-adv-x="798" 
d="M0 614q0 23 14.5 38.5t36.5 15.5h510q23 0 37 -15.5t14 -38.5t-14 -37t-37 -14h-510q-23 0 -37 14.5t-14 36.5z" />
    <glyph glyph-name="OE" unicode="&#x152;" horiz-adv-x="2414" 
 />
    <glyph glyph-name="oe" unicode="&#x153;" horiz-adv-x="2414" 
 />
    <glyph glyph-name="Ydieresis" unicode="&#x178;" horiz-adv-x="1196" 
 />
    <glyph glyph-name="circumflex" unicode="&#x2c6;" horiz-adv-x="573" 
d="M7.5 1240q-3.5 24 12.5 42l195 234q18 23 45 22q27 0 45 -22l193 -234q16 -18 13 -41.5t-22 -40.5q-8 -8 -17 -10t-19 -2q-12 0 -24.5 5t-22.5 17l-146 179l-147 -179q-16 -20 -41 -23t-43 13t-21.5 40z" />
    <glyph glyph-name="tilde" unicode="&#x2dc;" 
 />
    <glyph glyph-name="uni2000" unicode="&#x2000;" horiz-adv-x="869" 
 />
    <glyph glyph-name="uni2001" unicode="&#x2001;" horiz-adv-x="1739" 
 />
    <glyph glyph-name="uni2002" unicode="&#x2002;" horiz-adv-x="869" 
 />
    <glyph glyph-name="uni2003" unicode="&#x2003;" horiz-adv-x="1739" 
 />
    <glyph glyph-name="uni2004" unicode="&#x2004;" horiz-adv-x="579" 
 />
    <glyph glyph-name="uni2005" unicode="&#x2005;" horiz-adv-x="434" 
 />
    <glyph glyph-name="uni2006" unicode="&#x2006;" horiz-adv-x="289" 
 />
    <glyph glyph-name="uni2007" unicode="&#x2007;" horiz-adv-x="289" 
 />
    <glyph glyph-name="uni2008" unicode="&#x2008;" horiz-adv-x="217" 
 />
    <glyph glyph-name="uni2009" unicode="&#x2009;" horiz-adv-x="347" 
 />
    <glyph glyph-name="uni200A" unicode="&#x200a;" horiz-adv-x="96" 
 />
    <glyph glyph-name="uni2010" unicode="&#x2010;" horiz-adv-x="798" 
d="M0 614q0 23 14.5 38.5t36.5 15.5h510q23 0 37 -15.5t14 -38.5t-14 -37t-37 -14h-510q-23 0 -37 14.5t-14 36.5z" />
    <glyph glyph-name="uni2011" unicode="&#x2011;" horiz-adv-x="798" 
d="M0 614q0 23 14.5 38.5t36.5 15.5h510q23 0 37 -15.5t14 -38.5t-14 -37t-37 -14h-510q-23 0 -37 14.5t-14 36.5z" />
    <glyph glyph-name="figuredash" unicode="&#x2012;" horiz-adv-x="798" 
d="M0 614q0 23 14.5 38.5t36.5 15.5h510q23 0 37 -15.5t14 -38.5t-14 -37t-37 -14h-510q-23 0 -37 14.5t-14 36.5z" />
    <glyph glyph-name="endash" unicode="&#x2013;" 
 />
    <glyph glyph-name="emdash" unicode="&#x2014;" 
 />
    <glyph glyph-name="quoteleft" unicode="&#x2018;" 
 />
    <glyph glyph-name="quoteright" unicode="&#x2019;" 
 />
    <glyph glyph-name="quotesinglbase" unicode="&#x201a;" 
 />
    <glyph glyph-name="quotedblleft" unicode="&#x201c;" 
 />
    <glyph glyph-name="quotedblright" unicode="&#x201d;" 
 />
    <glyph glyph-name="quotedblbase" unicode="&#x201e;" 
 />
    <glyph glyph-name="bullet" unicode="&#x2022;" 
 />
    <glyph glyph-name="ellipsis" unicode="&#x2026;" horiz-adv-x="774" 
d="M59 61q0 27 17.5 44.5t44.5 17.5q25 0 43 -17.5t18 -44.5t-18.5 -44t-42.5 -17q-27 0 -44.5 17.5t-17.5 43.5zM317 61q0 27 17.5 44.5t44.5 17.5q25 0 43 -17.5t18 -44.5t-18.5 -44t-42.5 -17q-27 0 -44.5 17.5t-17.5 43.5zM575 61q0 27 17.5 44.5t44.5 17.5
q25 0 43 -17.5t18 -44.5t-18 -44t-43 -17q-27 0 -44.5 17.5t-17.5 43.5z" />
    <glyph glyph-name="uni202F" unicode="&#x202f;" horiz-adv-x="347" 
 />
    <glyph glyph-name="guilsinglleft" unicode="&#x2039;" 
 />
    <glyph glyph-name="guilsinglright" unicode="&#x203a;" 
 />
    <glyph glyph-name="uni205F" unicode="&#x205f;" horiz-adv-x="434" 
 />
    <glyph glyph-name="Euro" unicode="&#x20ac;" horiz-adv-x="1423" 
d="M-74 639q0 27 16.5 44t43.5 17h155v64v65h-155q-27 0 -43.5 17.5t-16.5 40.5q0 27 16.5 43t43.5 16h164q4 72 18 148.5t43 148.5q33 70 78 125t104 94q139 88 342 88q276 1 434 -157q57 -59 88 -123t45.5 -119t17.5 -94t3 -45v-2q0 -25 -17.5 -41.5t-41.5 -16.5
q-25 0 -41.5 16.5t-16.5 43.5q0 14 -2 30q-2 14 -6 33t-10 41q-14 59 -41 106.5t-64 88.5q-119 119 -348 119q-133 0 -220 -39t-139 -105.5t-77 -155t-33 -184.5h410q25 0 42 -16.5t17 -42.5q0 -23 -17.5 -40.5t-41.5 -17.5h-414v-65v-64h414q25 0 42 -17t17 -44
q0 -23 -17.5 -40t-41.5 -17h-410q6 -59 18.5 -123t39.5 -123q106 -238 411 -238q295 0 412 213q20 39 32.5 78t18.5 68.5t7 48.5l1 20q0 25 16.5 42.5t41.5 17.5q27 0 43 -17.5t16 -42.5q0 -2 -1 -26.5t-8 -62.5t-22.5 -86t-42.5 -97q-25 -49 -65.5 -98.5t-102 -89
t-147.5 -64.5t-199 -25q-203 0 -340 91q-121 80 -180 219q-31 72 -46 147.5t-19 147.5h-164q-27 0 -43.5 17t-16.5 40z" />
    <glyph glyph-name="trademark" unicode="&#x2122;" horiz-adv-x="1382" 
d="M158 1221q0 25 24 24h389q25 0 25 -24q0 -23 -25 -23h-389q-25 0 -24 23zM352 653v486q0 25 23 24q25 0 24 -24v-486q1 -24 -24 -24q-23 0 -23 24zM674 651v570q0 18 16 24q16 4 27 -10l211 -348l217 348q10 14 24 10q18 -6 19 -24v-570q0 -22 -25 -22q-23 0 -22 22v488
l-191 -310q-8 -12 -22 -12q-10 0 -19 12l-190 310v-488q0 -23 -23 -22q-23 0 -22 22z" />
    <glyph glyph-name="uni25FC" unicode="&#x25fc;" horiz-adv-x="1536" 
d="M0 0v1536h1536v-1536h-1536z" />
  </font>
</defs>
</svg>
